HIERARCHY
ROOT joint_Root
{
	OFFSET 0.0 0.0 0.0
	CHANNELS 6 Xposition Yposition Zposition Zrotation Xrotation Yrotation 
	JOINT Hips
	{
		OFFSET 4.5925 91.4895 -427.239
		CHANNELS 6 Xposition Yposition Zposition Zrotation Xrotation Yrotation 
		JOINT Spine
		{
			OFFSET 15.7357 0.0 0.0
			CHANNELS 6 Xposition Yposition Zposition Zrotation Xrotation Yrotation 
			JOINT Chest
			{
				OFFSET 8.98455 -0.406207 0.0
				CHANNELS 6 Xposition Yposition Zposition Zrotation Xrotation Yrotation 
				JOINT Neck
				{
					OFFSET 16.3773 0.0 0.0
					CHANNELS 6 Xposition Yposition Zposition Zrotation Xrotation Yrotation 
					JOINT Head
					{
						OFFSET 6.45672 0.0 0.0
						CHANNELS 6 Xposition Yposition Zposition Zrotation Xrotation Yrotation 
						End Site
						{
							OFFSET 0.0 0.0 0.0
						}
					}
				}
				JOINT Shoulder_L
				{
					OFFSET 12.9942 -0.242716 4.98039
					CHANNELS 6 Xposition Yposition Zposition Zrotation Xrotation Yrotation 
					JOINT UpperArm_L
					{
						OFFSET 5.34809 0.0 0.0
						CHANNELS 6 Xposition Yposition Zposition Zrotation Xrotation Yrotation 
						JOINT LowerArm_L
						{
							OFFSET 24.3286 1.87007e-05 0.0
							CHANNELS 6 Xposition Yposition Zposition Zrotation Xrotation Yrotation 
							JOINT Hand_L
							{
								OFFSET 22.2916 0.0 0.0
								CHANNELS 6 Xposition Yposition Zposition Zrotation Xrotation Yrotation 
								End Site
								{
									OFFSET 0.0 0.0 0.0
								}
							}
						}
					}
				}
				JOINT Shoulder_R
				{
					OFFSET 12.9945 -0.242716 -4.98039
					CHANNELS 6 Xposition Yposition Zposition Zrotation Xrotation Yrotation 
					JOINT UpperArm_R
					{
						OFFSET -5.34813 0.0 0.0
						CHANNELS 6 Xposition Yposition Zposition Zrotation Xrotation Yrotation 
						JOINT LowerArm_R
						{
							OFFSET -24.3289 0.000322201 0.0
							CHANNELS 6 Xposition Yposition Zposition Zrotation Xrotation Yrotation 
							JOINT Hand_R
							{
								OFFSET -22.2915 -0.000108084 0.0
								CHANNELS 6 Xposition Yposition Zposition Zrotation Xrotation Yrotation 
								End Site
								{
									OFFSET 0.0 0.0 0.0
								}
							}
						}
					}
				}
			}
		}
		JOINT UpperLeg_L
		{
			OFFSET -2.19248 -6.46944 0.0
			CHANNELS 6 Xposition Yposition Zposition Zrotation Xrotation Yrotation 
			JOINT LowerLeg_L
			{
				OFFSET 39.0811 0.0 -1.23785e-05
				CHANNELS 6 Xposition Yposition Zposition Zrotation Xrotation Yrotation 
				JOINT Foot_L
				{
					OFFSET 40.9854 0.0 -1.26872e-05
					CHANNELS 6 Xposition Yposition Zposition Zrotation Xrotation Yrotation 
					JOINT Toes_L
					{
						OFFSET 11.7543 0.0 0.0
						CHANNELS 6 Xposition Yposition Zposition Zrotation Xrotation Yrotation 
						End Site
						{
							OFFSET 0.0 0.0 0.0
						}
					}
				}
			}
		}
		JOINT UpperLeg_R
		{
			OFFSET -2.19251 6.46944 0.0
			CHANNELS 6 Xposition Yposition Zposition Zrotation Xrotation Yrotation 
			JOINT LowerLeg_R
			{
				OFFSET -39.0811 -0.00228153 -0.0401928
				CHANNELS 6 Xposition Yposition Zposition Zrotation Xrotation Yrotation 
				JOINT Foot_R
				{
					OFFSET -40.9854 0.0 0.0
					CHANNELS 6 Xposition Yposition Zposition Zrotation Xrotation Yrotation 
					JOINT Toes_R
					{
						OFFSET -11.7543 0.0 0.0
						CHANNELS 6 Xposition Yposition Zposition Zrotation Xrotation Yrotation 
						End Site
						{
							OFFSET 0.0 0.0 0.0
						}
					}
				}
			}
		}
	}
}
MOTION
Frames:	7
Frame Time:	0.0333333
0.000000 0.000000 0.000000 0.000000 0.000000 -0.000000 -0.978818 82.274000 2.440350 89.257100 -3.667520 12.998700 15.735700 0.000005 -0.000001 87.522300 79.761500 -87.844000 8.984550 -0.406207 -0.000000 12.690600 -0.890466 -0.544330 16.377300 -0.000001 -0.000001 -3.249520 -5.381210 2.769410 6.456720 -0.000001 -0.000000 -7.923490 -4.957850 1.469690 12.994200 -0.242716 4.980390 -91.018900 2.723160 -69.476400 5.348090 -0.000007 -0.000001 -72.101900 10.097400 4.663810 24.328600 0.000019 0.000005 1.910450 19.064700 -5.831610 22.291600 -0.000001 0.000005 -3.391560 4.648920 14.066100 12.994500 -0.242716 -4.980390 88.226400 7.325020 -76.347800 -5.348130 -0.000001 -0.000004 -68.726000 6.143520 -0.149493 -24.328900 0.000322 -0.000009 -0.041521 -9.259600 -0.229275 -22.291500 -0.000108 -0.000004 9.388620 5.021930 6.865430 -2.192480 -6.469440 -0.000000 -172.568000 -11.943100 -9.307850 39.081100 -0.000007 -0.000012 -0.539553 0.302033 60.761800 40.985400 -0.000006 -0.000013 0.726982 4.997880 -87.911400 11.754300 -0.000000 0.000003 -0.000414 -0.003401 -16.702800 -2.192510 6.469440 -0.000001 175.935000 13.006900 169.611000 -39.081100 -0.002282 -0.040193 0.079965 -0.041471 61.623500 -40.985400 0.000008 0.000006 4.603300 2.317780 -86.697400 -11.754300 -0.000006 -0.000006 -0.883946 -1.084030 -17.432500
0.000000 0.000000 0.000000 0.000000 0.000000 -0.000000 -1.254450 84.117900 2.894220 89.005600 -2.545980 11.948900 15.735700 0.000005 -0.000001 87.029500 80.858500 -87.380800 8.984550 -0.406207 -0.000000 10.490700 -0.949300 -0.615070 16.377300 -0.000001 -0.000001 -2.675720 -5.447440 2.817090 6.456720 -0.000001 -0.000000 -7.403610 -5.107790 1.218120 12.994200 -0.242716 4.980390 -90.366500 0.965558 -69.206300 5.348090 -0.000007 -0.000001 -65.620900 -2.477830 1.925800 24.328600 0.000019 0.000005 2.600730 21.774200 -6.979910 22.291600 -0.000001 0.000005 -5.066480 4.668410 13.720800 12.994500 -0.242716 -4.980390 88.687500 5.152980 -75.687200 -5.348130 -0.000001 -0.000004 -64.240000 -4.297750 -2.805660 -24.328900 0.000322 -0.000009 -0.001646 -5.343600 -0.000035 -22.291500 -0.000108 -0.000004 8.257270 4.867990 10.013400 -2.192480 -6.469440 -0.000000 -172.194000 -12.053800 -7.587050 39.081100 -0.000007 -0.000012 -0.449009 0.310581 55.329300 40.985400 -0.000006 -0.000013 0.902095 6.304360 -85.278200 11.754300 -0.000000 0.000003 -0.000356 -0.003004 -16.688800 -2.192510 6.469440 -0.000001 176.054000 14.806500 171.790000 -39.081100 -0.002282 -0.040193 0.069159 -0.044344 56.078400 -40.985400 0.000008 0.000006 4.827320 3.113970 -84.197400 -11.754300 -0.000006 -0.000006 -0.870103 -1.064560 -17.581100
0.000000 0.000000 0.000000 0.000000 0.000000 -0.000000 -1.451220 86.481100 3.369350 89.042900 -1.267460 10.381900 15.735700 0.000005 -0.000001 87.662400 82.520100 -88.185600 8.984550 -0.406207 -0.000000 7.179120 -0.605314 -1.007310 16.377300 -0.000001 -0.000001 -0.469015 -5.554160 2.853230 6.456720 -0.000001 -0.000000 -6.143060 -5.580690 1.154270 12.994200 -0.242716 4.980390 -89.731300 -0.689091 -68.701800 5.348090 -0.000007 -0.000001 -57.715300 -12.635200 -5.311870 24.328600 0.000019 0.000005 3.387500 21.898100 -9.018150 22.291600 -0.000001 0.000005 -2.030710 4.678470 13.542300 12.994500 -0.242716 -4.980390 89.094600 3.330750 -74.779000 -5.348130 -0.000001 -0.000004 -56.390400 -13.634700 -7.148330 -24.328900 0.000322 -0.000009 -0.001016 -4.738100 -0.000032 -22.291500 -0.000108 -0.000004 8.204190 4.833890 10.671900 -2.192480 -6.469440 -0.000000 -172.552000 -11.585300 -5.300450 39.081100 -0.000007 -0.000012 -0.370134 0.339515 47.471400 40.985400 -0.000006 -0.000013 0.664094 7.076920 -81.394200 11.754300 -0.000000 0.000003 -0.000259 -0.002297 -16.663500 -2.192510 6.469440 -0.000001 175.861000 17.059300 174.436000 -39.081100 -0.002282 -0.040193 0.051703 -0.042924 48.461200 -40.985400 0.000008 0.000006 4.970420 4.466000 -80.371500 -11.754300 -0.000006 -0.000006 -0.818787 -0.995913 -18.015400
0.000000 0.000000 0.000000 0.000000 0.000000 -0.000000 -1.502720 88.566500 3.570070 89.154100 -0.242017 7.834000 15.735700 0.000005 -0.000001 88.743600 84.738400 -89.444000 8.984550 -0.406207 -0.000000 2.753830 -0.199904 -1.394530 16.377300 -0.000001 -0.000001 2.957600 -5.526110 2.763110 6.456720 -0.000001 -0.000000 -3.910400 -5.667450 1.127800 12.994200 -0.242716 4.980390 -89.369200 -1.560000 -67.981100 5.348090 -0.000007 -0.000001 -51.144100 -23.462900 -17.341400 24.328600 0.000019 0.000005 3.801340 17.511800 -12.469100 22.291600 -0.000001 0.000005 2.234850 4.760590 12.077600 12.994500 -0.242716 -4.980390 89.511600 1.643390 -73.440700 -5.348130 -0.000001 -0.000004 -48.210200 -24.134400 -15.737400 -24.328900 0.000322 -0.000009 -0.003021 -7.619860 -0.000046 -22.291500 -0.000108 -0.000004 10.434100 4.842450 10.520300 -2.192480 -6.469440 -0.000000 -173.568000 -10.433600 -4.136380 39.081100 -0.000007 -0.000012 -0.292193 0.354676 39.483300 40.985400 -0.000006 -0.000013 0.055849 6.708940 -77.289300 11.754300 -0.000000 0.000003 -0.000170 -0.001615 -16.638700 -2.192510 6.469440 -0.000001 176.138000 18.874500 175.625000 -39.081100 -0.002282 -0.040193 0.034516 -0.035901 41.028700 -40.985400 0.000008 0.000006 4.855370 5.686970 -76.140100 -11.754300 -0.000006 -0.000006 -0.868525 -1.047780 -18.573700
0.000000 0.000000 0.000000 0.000000 0.000000 -0.000000 -1.537590 89.919800 3.622870 89.193000 0.179029 5.648680 15.735700 0.000005 -0.000001 89.299200 86.483600 -90.131500 8.984550 -0.406207 -0.000000 -0.733436 -0.024285 -1.663850 16.377300 -0.000001 -0.000001 5.462280 -5.476830 2.706420 6.456720 -0.000001 -0.000000 -1.611270 -5.626450 0.843820 12.994200 -0.242716 4.980390 -89.179500 -2.087700 -68.534300 5.348090 -0.000007 -0.000001 -46.300000 -33.333100 -31.471000 24.328600 0.000019 0.000005 3.806840 10.411900 -20.256100 22.291600 -0.000001 0.000005 6.393640 5.072760 5.881060 12.994500 -0.242716 -4.980390 89.916900 0.275401 -73.253300 -5.348130 -0.000001 -0.000004 -46.596800 -39.872300 -29.869800 -24.328900 0.000322 -0.000009 -1.376610 -16.717000 -4.673690 -22.291500 -0.000108 -0.000004 11.603600 5.129170 4.297870 -2.192480 -6.469440 -0.000000 -174.442000 -8.959070 -3.516480 39.081100 -0.000007 -0.000012 -0.242078 0.367012 33.408900 40.985400 -0.000006 -0.000013 -0.645811 5.437930 -74.146500 11.754300 -0.000000 0.000003 -0.000136 -0.001341 -16.628600 -2.192510 6.469440 -0.000001 176.794000 19.501200 176.172000 -39.081100 -0.002282 -0.040193 0.022798 -0.027553 35.299400 -40.985400 0.000008 0.000006 4.635070 6.194170 -73.098300 -11.754300 -0.000006 -0.000006 -0.758343 -0.915398 -18.821800
0.000000 0.000000 0.000000 0.000000 0.000000 -0.000000 -1.538950 90.567800 3.670960 89.210200 0.045302 4.357130 15.735700 0.000005 -0.000001 84.220000 87.465000 -85.017900 8.984550 -0.406207 -0.000000 -2.724410 -0.437385 -1.606280 16.377300 -0.000001 -0.000001 6.095490 -5.127230 2.223980 6.456720 -0.000001 -0.000000 -0.522142 -5.311840 0.286944 12.994200 -0.242716 4.980390 -88.498300 -3.937060 -69.104400 5.348090 -0.000007 -0.000001 -38.929000 -39.840400 -41.014800 24.328600 0.000019 0.000005 4.296150 6.209120 -34.769900 22.291600 -0.000001 0.000005 15.931700 5.310260 -0.132421 12.994500 -0.242716 -4.980390 90.750900 -2.621470 -74.009400 -5.348130 -0.000001 -0.000004 -47.874800 -46.142500 -45.461700 -24.328900 0.000322 -0.000009 -11.125900 -26.378600 -23.893200 -22.291500 -0.000108 -0.000004 12.801100 5.493830 -5.944180 -2.192480 -6.469440 -0.000000 -174.994000 -7.733150 -3.162230 39.081100 -0.000007 -0.000012 -0.217910 0.376944 30.032400 40.985400 -0.000006 -0.000013 -1.148930 4.032900 -72.488900 11.754300 -0.000000 0.000003 -0.000148 -0.001439 -16.632300 -2.192510 6.469440 -0.000001 177.255000 19.520100 176.755000 -39.081100 -0.002282 -0.040193 0.016937 -0.022217 31.545600 -40.985400 0.000008 0.000006 4.600930 6.417070 -72.022900 -11.754300 -0.000006 -0.000006 -0.369823 -0.464557 -18.396100
0.000000 0.000000 0.000000 0.000000 0.000000 -0.000000 -1.508640 90.837800 3.659530 89.258200 -0.566073 3.790020 15.735700 0.000005 -0.000001 82.060000 87.608500 -82.719400 8.984550 -0.406207 -0.000000 -3.032150 -0.598294 -1.334830 16.377300 -0.000001 -0.000001 4.192990 -4.752760 2.033700 6.456720 -0.000001 -0.000000 -0.872692 -4.963070 -0.577017 12.994200 -0.242716 4.980390 -87.305600 -6.490630 -67.403800 5.348090 -0.000007 -0.000001 -31.667500 -46.538200 -49.372300 24.328600 0.000019 0.000005 7.349820 6.177920 -50.149500 22.291600 -0.000001 0.000005 25.898400 5.346210 -1.180400 12.994500 -0.242716 -4.980390 91.829600 -6.152390 -73.407900 -5.348130 -0.000001 -0.000004 -38.601000 -48.247000 -52.444800 -24.328900 0.000322 -0.000009 -10.061900 -10.203600 -45.157400 -22.291500 -0.000108 -0.000004 23.424600 5.570050 -9.369020 -2.192480 -6.469440 -0.000000 -175.193000 -7.875500 -2.880040 39.081100 -0.000007 -0.000012 -0.204907 0.378037 28.459300 40.985400 -0.000006 -0.000013 -1.299450 3.562070 -71.745200 11.754300 -0.000000 0.000003 -0.000156 -0.001501 -16.634600 -2.192510 6.469440 -0.000001 177.325000 19.635400 177.302000 -39.081100 -0.002282 -0.040193 0.015082 -0.020915 29.387300 -40.985400 0.000008 0.000006 4.908170 7.087140 -71.957600 -11.754300 -0.000006 -0.000006 -0.002397 -0.033585 -17.938800
